<svg width="32" height="32" viewBox="0 0 32 32" fill="none" xmlns="http://www.w3.org/2000/svg">
  <defs>
    <linearGradient id="steamGradient" x1="0%" y1="0%" x2="100%" y2="100%">
      <stop offset="0%" style="stop-color:#1b2838;stop-opacity:1" />
      <stop offset="100%" style="stop-color:#2a475e;stop-opacity:1" />
    </linearGradient>
  </defs>
  
  <!-- Fondo circular -->
  <circle cx="16" cy="16" r="15" fill="url(#steamGradient)" stroke="#c7d5e0" stroke-width="1"/>
  
  <!-- Logo de Steam - Estilo simplificado -->
  <g transform="translate(8, 8)">
    <!-- Parte superior del logo -->
    <path d="M8 2C4.7 2 2 4.7 2 8s2.7 6 6 6c1.1 0 2.1-.3 3-.8l1.2 1.2c.4.4 1 .4 1.4 0s.4-1 0-1.4L12.4 11.2c.5-.9.8-1.9.8-3 0-3.3-2.7-6-6-6z" fill="#c7d5e0"/>
    
    <!-- Detalles internos -->
    <circle cx="6" cy="6" r="1.5" fill="#1b2838"/>
    <path d="M10 4c-.6 0-1 .4-1 1s.4 1 1 1 1-.4 1-1-.4-1-1-1z" fill="#1b2838"/>
  </g>
</svg>
